<svg xmlns="http://www.w3.org/2000/svg" viewBox="0 0 365 63" enable-background="new 0 0 365 63"><path d="m63.1 31.5c.1-9.1-3.8-17.7-10.5-23.8v23.8c0 11.6-7.8 21.6-21 21.6s-21-10-21-21.6 7.8-21.6 21-21.6c3.7 0 7.3.8 10.5 2.6v-10.8c-3.4-1.1-7-1.7-10.6-1.7-18.4 0-31.5 14.4-31.5 31.5s13.1 31.5 31.5 31.5 31.6-14.4 31.6-31.5m-21 0c0 5.8-3.9 10.8-10.5 10.8s-10.6-5-10.6-10.8 4-10.8 10.5-10.8 10.6 5 10.6 10.8m128.7 8c-2.3 0-4.3-1.9-4.3-4.9v-.1c0-3 2-4.9 4.3-4.9s4.3 1.9 4.3 4.9v.1c0 3-2 4.9-4.3 4.9m-1.3 4.3c2.2 0 4.3-1 5.5-2.9v2.5h5v-24h-5v8.7c-1.3-1.7-3.4-2.7-5.5-2.6-4.2 0-8.1 3.2-8.1 9.1v.1c0 5.9 4 9.1 8.1 9.1m-19.4-.3h5v-6.5c0-4.2 2.1-6.2 5.4-6.2h.3v-5.2c-3-.1-4.6 1.5-5.7 3.9v-3.6h-5v17.6zm-11.9-4c-2.6 0-4.7-2.1-4.7-4.7 0 0 0-.1 0-.1v-.1c-.2-2.5 1.7-4.7 4.2-4.8.1 0 .2 0 .4 0 2.6 0 4.7 2.1 4.7 4.7 0 0 0 .1 0 .1v.1c.2 2.5-1.7 4.7-4.2 4.8-.2 0-.3 0-.4 0m-.1 4.4c5.1.2 9.4-3.8 9.6-9 0-.1 0-.2 0-.2v-.1c-.3-5.3-4.7-9.4-10-9.1-5 .2-8.9 4.2-9.1 9.2v.1c0 5.1 4.2 9.2 9.2 9.2.1-.1.2-.1.3-.1m-18.8-.4h5v-13.4h4v-4.1h-4.1v-.7c-.1-.9.5-1.8 1.4-1.9.2 0 .3 0 .5 0 .8 0 1.6.1 2.3.4v-4.2c-1.2-.4-2.4-.5-3.6-.5-1.5-.1-3 .4-4.1 1.4-1 1.2-1.5 2.7-1.4 4.3v1.1h-2.1v4.1h2.1v13.5zm-20.3 0h5.3l3.6-5.5 3.6 5.5h5.4l-6.2-9.1 6-8.6h-5.3l-3.3 5.2-3.3-5.2h-5.4l6 8.7-6.4 9m-13.3-4.3c-3.9 0-7-3.2-7-7 0-.1 0-.1 0-.2v-.1c-.2-3.8 2.8-7 6.6-7.2.1 0 .2 0 .3 0 3.9 0 7 3.2 7 7 0 .1 0 .1 0 .2v.1c.2 3.8-2.8 7-6.6 7.2-.1 0-.2 0-.3 0m-.1 4.7c6.6.2 12.1-5 12.3-11.6 0-.1 0-.2 0-.4v-.1c-.2-6.8-5.9-12.1-12.6-11.9-6.5.2-11.8 5.5-12 12v.1c0 6.5 5.3 11.9 11.8 11.9.2 0 .4 0 .5 0m273.4-.2c3.4 0 6.1-1.9 6.1-5.1v-.1c0-3.1-2.8-4.1-5.5-4.9-2.3-.7-4.4-1.3-4.4-2.9v-.1c0-1.4 1.3-2.5 3.3-2.5 1.8.1 3.6.6 5.1 1.7l1.2-1.9c-1.8-1.2-4-1.8-6.1-1.9-3.4 0-5.8 1.9-5.8 4.9v.1c0 3.1 3 4.1 5.7 4.8 2.2.6 4.3 1.3 4.3 3v.1c0 1.7-1.5 2.7-3.5 2.7-2.2-.1-4.2-.8-5.9-2.2l-1.3 1.8c1.7 1.6 4.2 2.5 6.8 2.5m-22.4-9.8c.4-3.3 2.6-5.7 5.6-5.7 3.4 0 5.2 2.6 5.5 5.7h-11.1zm0 2h13.6c0-.4 0-.7 0-.9 0-5-2.9-9-8-9-4.7 0-8.2 4-8.2 8.9 0 5.3 3.8 8.9 8.5 8.9 2.7.1 5.3-1.1 7-3.2l-1.6-1.4c-1.4 1.5-3.3 2.4-5.4 2.4-3.1 0-5.8-2.5-5.9-5.7m-8.7 7.5h2.6v-17.1h-2.5l-.1 17.1zm-.1-20.8h2.9v-2.8h-2.9v2.8m-12.2 20.8h2.5v-6.8c0-5.2 3-7.8 6.8-7.8h.2v-2.8c-3.2-.1-5.7 1.9-7 4.8v-4.5h-2.5v17.1m-12.2-1.7c-2.3 0-4.3-1.3-4.3-3.4v-.1c0-2 1.8-3.4 5-3.4 1.7 0 3.4.2 5 .7v1.6c0 2.7-2.6 4.6-5.7 4.6m-.5 2.1c2.4.1 4.7-1 6.1-2.9v2.5h2.5v-10.4c.1-1.8-.5-3.7-1.8-5-1.5-1.3-3.5-2-5.5-1.9-2.2 0-4.3.5-6.2 1.5l.8 2.1c1.6-.8 3.4-1.2 5.2-1.2 3.2 0 5.1 1.6 5.1 4.6v.5c-1.7-.5-3.5-.7-5.2-.7-4.3 0-7.3 1.9-7.3 5.6v.1c-.1 3.4 3.1 5.2 6.3 5.2m-24.1-.4h2.5v-9.8c-.2-2.8 1.9-5.2 4.7-5.3.1 0 .3 0 .4 0 3 0 4.7 2 4.7 5.2v10h2.5v-10.7c0-4.1-2.4-6.8-6.5-6.8-2.4-.1-4.7 1.2-5.8 3.3v-3h-2.5v17.1zm-12.2-1.9c-3.5 0-6.4-3-6.3-6.5 0 0 0-.1 0-.1v-.1c-.2-3.5 2.5-6.4 6-6.6.1 0 .2 0 .3 0 3.6.1 6.4 3 6.3 6.6 0 0 0 .1 0 .1v.1c.1 3.5-2.5 6.4-6 6.6-.1-.1-.2-.1-.3-.1m-.1 2.3c4.9 0 8.9-3.9 9-8.8 0 0 0-.1 0-.1v-.1c0-4.9-4-8.9-8.9-8.9-4.9 0-8.9 4-8.9 8.9v.2c-.1 4.8 3.8 8.8 8.6 8.9.1-.1.2-.1.2-.1m-14.9-.4h2.5v-17.1h-2.5v17.1zm-.2-20.8h2.9v-2.8h-2.9v2.8m-6.3 21.1c1.1 0 2.1-.2 3.1-.7v-2.2c-.8.4-1.6.6-2.5.6-1.7 0-2.9-.8-2.9-2.8v-10h5.4v-2.2h-5.4v-5.2h-2.5v5.2h-2.4v2.2h2.4v10.3c-.1 3.4 2 4.8 4.8 4.8m-15.6.1c2.7 0 5.3-1.2 7-3.3l-1.6-1.5c-1.3 1.6-3.2 2.5-5.2 2.5-3.5-.1-6.3-3-6.3-6.5 0-.1 0-.1 0-.2v-.1c-.2-3.5 2.5-6.4 6-6.6 0 0 .1 0 .1 0 2 .1 3.9 1 5.2 2.6l1.7-1.8c-3.2-3.7-8.9-4.1-12.6-.8-1.9 1.7-3 4.1-3 6.7v.2c-.1 4.8 3.8 8.8 8.7 8.8m-14.8-.4h2.5v-17.1h-2.5v17.1zm-.2-20.8h2.9v-2.8h-2.9v2.8m-21.6 18.4v-18.3h5.4c5.9 0 9.6 4 9.6 9.1v.1c0 5.1-3.7 9.1-9.6 9.1h-5.4m-2.6 2.4h8c7.3 0 12.3-5.1 12.3-11.6v-.1c0-6.5-5-11.5-12.3-11.5h-8v23.2" fill="#00bdf2"/></svg>